<svg width="124" height="120" viewBox="0 0 124 120" fill="none" xmlns="http://www.w3.org/2000/svg">
<path d="M5.12842 5.12805H117.949V114.872H5.12842V5.12805Z" fill="url(#paint0_radial_1223_6086)"/>
<path d="M5.12813 5.12813H117.949V114.872H5.12813V5.12813ZM0 120H123.077V0H0V120ZM87.0767 57.8461C89.6919 57.8461 90.6151 57.8461 90.8715 57.7436C90.8715 57.3847 90.974 57.1281 90.974 56.8717C90.974 54.1024 89.6407 48.9743 84.3074 48.9743C79.3842 48.9743 77.2819 53.2818 76.769 57.8461H87.0767ZM76.6666 64.8716C76.7692 71.7948 80.0512 76.4615 87.846 76.4615C90.8717 76.4615 93.4869 76.0515 96.2051 74.8719C96.564 74.7181 96.8206 74.7694 96.8206 75.2309V81.6411C96.8206 82.1538 96.6668 82.4104 96.3079 82.6668C93.5899 83.9999 90.2051 84.6154 86.0001 84.6154C72.4619 84.6154 67.3848 74.6156 67.3848 63.4874C67.3848 51.3848 73.6414 41.4875 84.667 41.4875C95.8464 41.4875 99.7439 50.8721 99.7439 58.5131C99.7439 60.9747 99.5901 62.9747 99.3337 63.9491C99.2312 64.3593 99.0774 64.5133 98.6669 64.6159C97.6412 64.7697 94.6156 64.9746 90.1028 64.9746H76.6666V64.8716ZM49.1796 59.641C47.7437 53.9486 44.2564 41.5384 42.9743 35.5384H42.8718C41.795 41.5384 38.9743 51.6921 36.8718 59.641H49.1796ZM34.7691 67.9488L30.7179 83.2821C30.6154 83.6921 30.4615 83.8461 29.9486 83.8461H22.4101C21.8974 83.8461 21.7946 83.6923 21.8974 83.077L36.4614 32.1538C36.7177 31.2309 36.8716 30.5128 36.9741 27.9488C36.9741 27.5899 37.1279 27.4361 37.3843 27.4361H48.1535C48.5125 27.4361 48.6663 27.5386 48.769 27.9488L65.0766 83.1795C65.1791 83.5895 65.0766 83.8461 64.6664 83.8461H56.205C55.7948 83.8461 55.5382 83.6923 55.4356 83.3336L51.2304 67.949H34.7691V67.9488Z" fill="#D8A1FF"/>
<defs>
<radialGradient id="paint0_radial_1223_6086" cx="0" cy="0" r="1" gradientUnits="userSpaceOnUse" gradientTransform="translate(42.286 29.7217) scale(85.7435 83.0154)">
<stop stop-color="#442F55" stop-opacity="0.98"/>
<stop offset="1" stop-color="#12002C"/>
</radialGradient>
</defs>
</svg>
