<svg width="30" height="30" viewBox="0 0 30 30" fill="none" xmlns="http://www.w3.org/2000/svg">
<g clip-path="url(#clip0_1222_5401)">
<path d="M0 5.6005V24.0538H8.94425C9.77087 24.0538 10.579 23.9498 11.3564 23.7438C12.1424 23.537 12.8445 23.2184 13.4554 22.7861C14.0616 22.3573 14.5534 21.8011 14.915 21.115C15.2727 20.4375 15.4517 19.6313 15.4517 18.6958C15.4517 17.5418 15.178 16.5571 14.6174 15.7345C14.0599 14.9168 13.219 14.3421 12.0831 14.0163C12.9174 13.6211 13.5404 13.1129 13.9656 12.4941C14.387 11.8733 14.5979 11.0974 14.5979 10.1683C14.5979 9.30913 14.457 8.58363 14.176 8.0035C13.8878 7.41488 13.486 6.947 12.972 6.59525C12.45 6.24425 11.832 5.98813 11.108 5.83463C10.3796 5.677 9.583 5.60063 8.7 5.60063L0 5.6005ZM19.5843 6.83838V8.65925H27.0648V6.83838H19.5843ZM4.06362 8.74338H7.8645C8.22363 8.74338 8.57487 8.76888 8.90938 8.83475C9.25037 8.893 9.54438 9.00225 9.80437 9.15913C10.0664 9.30975 10.2736 9.52538 10.4306 9.80063C10.5816 10.076 10.6564 10.4304 10.6564 10.8599C10.6564 11.6335 10.43 12.1976 9.9625 12.5381C9.49025 12.885 8.89462 13.0565 8.1745 13.0565H4.06362V8.74338ZM23.4949 10.3139C22.4711 10.3139 21.5465 10.4966 20.7081 10.8589C19.87 11.2219 19.1502 11.7183 18.5434 12.3483C17.9376 12.9746 17.4765 13.7215 17.1434 14.5869C16.8169 15.4494 16.6506 16.3826 16.6506 17.3819C16.6506 18.4154 16.8111 19.3682 17.13 20.2301C17.4525 21.0955 17.9048 21.8329 18.487 22.4564C19.0845 23.0772 19.7945 23.5544 20.6445 23.8935C21.4953 24.2297 22.4423 24.3995 23.4949 24.3995C25.0049 24.3995 26.3006 24.0531 27.3635 23.3588C28.4384 22.6678 29.2262 21.52 29.7458 19.912H26.5145C26.3895 20.3254 26.0658 20.7233 25.5345 21.0954C24.9976 21.4689 24.3574 21.6569 23.617 21.6569C22.5879 21.6569 21.7935 21.3859 21.2439 20.8491C20.6924 20.3124 20.3355 19.313 20.3355 18.2564H29.9767C30.0457 17.22 29.9615 16.2291 29.7211 15.2818C29.4789 14.3316 29.092 13.4861 28.547 12.7455C28.0026 12.0041 27.309 11.4121 26.4633 10.9749C25.6148 10.532 24.6254 10.3139 23.4949 10.3139ZM23.384 13.0851C24.2851 13.0851 25.0248 13.3466 25.4605 13.8294C25.8984 14.3156 26.2186 15.0084 26.3062 15.9438H20.3355C20.3525 15.6831 20.408 15.3883 20.5029 15.0631C20.5965 14.7296 20.7578 14.4176 20.9945 14.1219C21.2326 13.8311 21.5448 13.5831 21.9245 13.3849C22.3131 13.1839 22.7977 13.0853 23.384 13.0853V13.0851ZM4.06375 15.83H8.4805C9.355 15.83 10.0658 16.0303 10.599 16.4345C11.1314 16.8445 11.3996 17.5201 11.3996 18.471C11.3996 18.9566 11.3206 19.3578 11.1564 19.6668C10.9926 19.9786 10.7681 20.225 10.4964 20.4038C10.2249 20.5901 9.90225 20.716 9.53875 20.7959C9.181 20.8757 8.80062 20.9109 8.39937 20.9109H4.06362L4.06375 15.83Z" />
</g>
<defs>
<clipPath id="clip0_1222_5401">
<rect width="30" height="30" />
</clipPath>
</defs>
</svg>
