<svg width="121" height="121" viewBox="0 0 121 121" fill="none" xmlns="http://www.w3.org/2000/svg">
<path d="M30.6296 120.444C47.1896 120.444 60.6296 111.485 60.6296 100.445V80.4446H30.6296C14.0696 80.4446 0.629639 89.4046 0.629639 100.445C0.629639 111.485 14.0696 120.444 30.6296 120.444Z" fill="#0ACF83"/>
<path d="M0.629639 60.4443C0.629639 49.4043 14.0696 40.4443 30.6296 40.4443H60.6296V80.4443H30.6296C14.0696 80.4443 0.629639 71.4843 0.629639 60.4443Z" fill="#A259FF"/>
<path d="M0.629639 20.4444C0.629639 9.40445 14.0696 0.444458 30.6296 0.444458H60.6296V40.4444H30.6296C14.0696 40.4444 0.629639 31.4844 0.629639 20.4444Z" fill="#F24E1E"/>
<path d="M60.6296 0.444458H90.6297C107.19 0.444458 120.63 9.40445 120.63 20.4444C120.63 31.4844 107.19 40.4444 90.6297 40.4444H60.6296V0.444458Z" fill="#FF7262"/>
<path d="M120.63 60.4443C120.63 71.4843 107.19 80.4443 90.6297 80.4443C74.0697 80.4443 60.6296 71.4843 60.6296 60.4443C60.6296 49.4043 74.0697 40.4443 90.6297 40.4443C107.19 40.4443 120.63 49.4043 120.63 60.4443Z" fill="#1ABCFE"/>
</svg>
