<svg width="120" height="120" viewBox="0 0 120 120" fill="none" xmlns="http://www.w3.org/2000/svg">
<path d="M60.005 10C32.38 10 10.005 32.375 10.005 60C9.99899 70.4958 13.298 80.727 19.4341 89.2422C25.5701 97.7575 34.2317 104.125 44.19 107.44C46.69 107.875 47.63 106.375 47.63 105.06C47.63 103.875 47.565 99.94 47.565 95.75C35.005 98.065 31.755 92.69 30.755 89.875C30.19 88.435 27.755 84 25.63 82.81C23.88 81.875 21.38 79.56 25.565 79.5C29.505 79.435 32.315 83.125 33.255 84.625C37.755 92.185 44.94 90.06 47.815 88.75C48.255 85.5 49.565 83.315 51.005 82.065C39.88 80.815 28.255 76.5 28.255 57.375C28.255 51.935 30.19 47.44 33.38 43.94C32.88 42.69 31.13 37.565 33.88 30.69C33.88 30.69 38.065 29.375 47.63 35.81C51.7006 34.682 55.9061 34.1151 60.13 34.125C64.38 34.125 68.63 34.685 72.63 35.81C82.195 29.31 86.38 30.69 86.38 30.69C89.13 37.565 87.38 42.69 86.88 43.94C90.065 47.44 92.005 51.875 92.005 57.375C92.005 76.565 80.32 80.815 69.195 82.065C71.005 83.625 72.57 86.625 72.57 91.315C72.57 98 72.505 103.375 72.505 105.065C72.505 106.375 73.445 107.935 75.945 107.435C85.8692 104.083 94.4926 97.7038 100.602 89.1946C106.711 80.6855 109.998 70.475 110 60C110 32.375 87.625 10 60 10"/>
</svg>
