<svg width="120" height="120" viewBox="0 0 120 120" fill="none" xmlns="http://www.w3.org/2000/svg">
<path d="M120 0H0V120H120V0Z" fill="#F7DF1E"/>
<path d="M80.6086 93.7506C83.0257 97.6972 86.1705 100.598 91.7324 100.598C96.4047 100.598 99.3895 98.2629 99.3895 95.0363C99.3895 91.1696 96.3228 89.8001 91.18 87.5506L88.3609 86.341C80.2238 82.8744 74.8181 78.5315 74.8181 69.3506C74.8181 60.8934 81.2619 54.4553 91.3324 54.4553C98.5019 54.4553 103.656 56.9506 107.37 63.4839L98.5895 69.122C96.6562 65.6553 94.5705 64.2896 91.3324 64.2896C88.0295 64.2896 85.9362 66.3848 85.9362 69.122C85.9362 72.5048 88.0314 73.8744 92.8695 75.9696L95.6885 77.1772C105.27 81.2858 110.679 85.4744 110.679 94.8915C110.679 105.044 102.704 110.606 91.9933 110.606C81.5209 110.606 74.7552 105.615 71.4447 99.0744L80.6086 93.7506ZM40.7743 94.7277C42.5457 97.8706 44.1571 100.528 48.0314 100.528C51.7362 100.528 54.0733 99.0782 54.0733 93.442V55.0991H65.3495V93.5944C65.3495 105.271 58.5038 110.585 48.5114 110.585C39.4828 110.585 34.2543 105.912 31.5952 100.285L40.7743 94.7277Z" fill="black"/>
</svg>
