<svg width="80" height="80" viewBox="0 0 80 80" fill="none" xmlns="http://www.w3.org/2000/svg">
<path d="M79.5 40C79.5 61.8153 61.8153 79.5 40 79.5C18.1848 79.5 0.5 61.8153 0.5 40C0.5 18.1848 18.1848 0.5 40 0.5C61.8153 0.5 79.5 18.1848 79.5 40Z" fill="#0C151D" stroke="#0C151D"/>
<path d="M40 33.3334C39.558 33.3334 39.1341 33.509 38.8215 33.8215C38.5089 34.1341 38.3333 34.558 38.3333 35.0001C38.3333 35.4421 38.5089 35.866 38.8215 36.1786C39.1341 36.4911 39.558 36.6667 40 36.6667C40.8841 36.6667 41.7319 37.0179 42.357 37.643C42.9821 38.2682 43.3333 39.116 43.3333 40.0001C43.3333 40.8841 42.9821 41.732 42.357 42.3571C41.7319 42.9822 40.8841 43.3334 40 43.3334C39.558 43.3334 39.1341 43.509 38.8215 43.8215C38.5089 44.1341 38.3333 44.558 38.3333 45.0001C38.3333 45.4421 38.5089 45.866 38.8215 46.1786C39.1341 46.4911 39.558 46.6667 40 46.6667C41.7681 46.6667 43.4638 45.9643 44.714 44.7141C45.9643 43.4639 46.6667 41.7682 46.6667 40.0001C46.6667 38.2319 45.9643 36.5363 44.714 35.286C43.4638 34.0358 41.7681 33.3334 40 33.3334ZM56.1833 38.8167L52.2667 35.0001V29.4001C52.2667 28.958 52.0911 28.5341 51.7785 28.2215C51.466 27.909 51.042 27.7334 50.6 27.7334H45.0833L41.1833 23.8167C41.0284 23.6605 40.8441 23.5365 40.641 23.4519C40.4379 23.3673 40.22 23.3237 40 23.3237C39.78 23.3237 39.5621 23.3673 39.359 23.4519C39.1559 23.5365 38.9716 23.6605 38.8167 23.8167L35 27.7334H29.4C28.958 27.7334 28.534 27.909 28.2215 28.2215C27.9089 28.5341 27.7333 28.958 27.7333 29.4001V35.0001L23.8167 38.8167C23.6605 38.9717 23.5365 39.156 23.4518 39.3591C23.3672 39.5622 23.3237 39.78 23.3237 40.0001C23.3237 40.2201 23.3672 40.4379 23.4518 40.641C23.5365 40.8441 23.6605 41.0285 23.8167 41.1834L27.7333 45.0834V50.6001C27.7333 51.0421 27.9089 51.466 28.2215 51.7786C28.534 52.0911 28.958 52.2667 29.4 52.2667H35L38.9 56.1834C39.0549 56.3396 39.2393 56.4636 39.4424 56.5482C39.6455 56.6328 39.8633 56.6764 40.0833 56.6764C40.3034 56.6764 40.5212 56.6328 40.7243 56.5482C40.9274 56.4636 41.1117 56.3396 41.2667 56.1834L45.1667 52.2667H50.6833C51.1254 52.2667 51.5493 52.0911 51.8618 51.7786C52.1744 51.466 52.35 51.0421 52.35 50.6001V45.0834L56.2667 41.1834C56.4176 41.023 56.5352 40.8343 56.6127 40.6282C56.6902 40.4222 56.7262 40.2027 56.7184 39.9827C56.7107 39.7626 56.6594 39.5463 56.5676 39.3462C56.4757 39.146 56.3451 38.9661 56.1833 38.8167ZM49.4333 43.2167C49.2759 43.3711 49.1506 43.5552 49.0647 43.7583C48.9789 43.9614 48.9343 44.1795 48.9333 44.4001V48.9334H44.4C44.1795 48.9343 43.9613 48.979 43.7582 49.0648C43.5551 49.1506 43.371 49.2759 43.2167 49.4334L40 52.6501L36.7833 49.4334C36.629 49.2759 36.4449 49.1506 36.2418 49.0648C36.0387 48.979 35.8205 48.9343 35.6 48.9334H31.0667V44.4001C31.0658 44.1795 31.0211 43.9614 30.9353 43.7583C30.8494 43.5552 30.7241 43.3711 30.5667 43.2167L27.35 40.0001L30.5667 36.7834C30.7241 36.629 30.8494 36.445 30.9353 36.2418C31.0211 36.0387 31.0658 35.8206 31.0667 35.6001V31.0667H35.6C35.8205 31.0658 36.0387 31.0211 36.2418 30.9353C36.4449 30.8495 36.629 30.7242 36.7833 30.5667L40 27.3501L43.2167 30.5667C43.371 30.7242 43.5551 30.8495 43.7582 30.9353C43.9613 31.0211 44.1795 31.0658 44.4 31.0667H48.9333V35.6001C48.9343 35.8206 48.9789 36.0387 49.0647 36.2418C49.1506 36.445 49.2759 36.629 49.4333 36.7834L52.65 40.0001L49.4333 43.2167Z" fill="white"/>
</svg>
