<svg width="55" height="55" viewBox="0 0 55 55" fill="none" xmlns="http://www.w3.org/2000/svg">
<path d="M48.125 22.9167C48.125 38.9584 27.5 52.7084 27.5 52.7084C27.5 52.7084 6.875 38.9584 6.875 22.9167C6.875 17.4467 9.04798 12.2006 12.9159 8.33267C16.7839 4.46473 22.0299 2.29175 27.5 2.29175C32.9701 2.29175 38.2161 4.46473 42.0841 8.33267C45.952 12.2006 48.125 17.4467 48.125 22.9167Z" stroke-width="2" stroke-linecap="round" stroke-linejoin="round"/>
<path d="M27.5 29.7917C31.297 29.7917 34.375 26.7137 34.375 22.9167C34.375 19.1198 31.297 16.0417 27.5 16.0417C23.703 16.0417 20.625 19.1198 20.625 22.9167C20.625 26.7137 23.703 29.7917 27.5 29.7917Z" stroke-width="2" stroke-linecap="round" stroke-linejoin="round"/>
</svg>
