<svg width="120" height="120" viewBox="0 0 120 120" fill="none" xmlns="http://www.w3.org/2000/svg">
<path d="M56.07 0.0316453C55.812 0.055042 54.9906 0.137229 54.2514 0.195421C37.2078 1.7318 21.243 10.9273 11.1312 25.06C5.5014 32.9183 1.8996 41.8318 0.5394 51.2739C0.0588001 54.5698 0 55.5435 0 60.0116C0 64.4804 0.0587998 65.454 0.54 68.7494C3.8004 91.2797 19.836 110.21 41.5836 117.224C45.4782 118.479 49.5834 119.335 54.252 119.851C56.0706 120.05 63.9294 120.05 65.748 119.851C73.8066 118.959 80.6334 116.966 87.3666 113.529C88.3986 113.001 88.5984 112.86 88.4574 112.743C88.3638 112.673 83.9646 106.773 78.6864 99.6425L69.0912 86.6826L57.0672 68.8904C50.4516 59.1088 45.009 51.1095 44.9616 51.1095C44.9148 51.0981 44.868 59.0032 44.8446 68.6558C44.8092 85.5566 44.7978 86.2369 44.5866 86.6352C44.2818 87.2099 44.0472 87.4445 43.554 87.703C43.179 87.8902 42.8502 87.9256 41.079 87.9256H39.0498L38.5098 87.5855C38.1755 87.376 37.904 87.0803 37.7238 86.7294L37.4778 86.2015L37.5018 62.686L37.5366 39.1586L37.9002 38.7009C38.088 38.4549 38.487 38.1382 38.7684 37.9858C39.249 37.7512 39.4368 37.7278 41.466 37.7278C43.8594 37.7278 44.2578 37.8214 44.88 38.5017C45.0558 38.6895 51.5658 48.4945 59.355 60.305C67.2406 72.2594 75.131 84.2107 83.0262 96.1588L92.5278 110.55L93.009 110.233C97.2666 107.465 101.771 103.525 105.337 99.4194C112.927 90.705 117.818 80.0793 119.461 68.7494C119.941 65.454 120 64.4804 120 60.0116C120 55.5435 119.941 54.5698 119.461 51.2739C116.2 28.7435 100.164 9.81384 78.4164 2.80025C74.5806 1.55662 70.4988 0.700549 65.9238 0.184623C64.7976 0.0670398 57.0438 -0.0613416 56.0706 0.0322449M80.6334 36.3204C81.1962 36.6018 81.654 37.1411 81.8184 37.7038C81.912 38.0092 81.9354 44.5302 81.912 59.2257L81.8766 80.3139L78.1584 74.6135L74.4282 68.9137V53.5847C74.4282 43.6742 74.475 38.1028 74.5452 37.8328C74.733 37.1765 75.1434 36.6606 75.7068 36.3552C76.1874 36.1093 76.3638 36.0853 78.2052 36.0853C79.9416 36.0853 80.2464 36.1093 80.6334 36.3204Z" />
<path d="M56.07 0.0316453C55.812 0.055042 54.9906 0.137229 54.2514 0.195421C37.2078 1.7318 21.243 10.9273 11.1312 25.06C5.5014 32.9183 1.8996 41.8318 0.5394 51.2739C0.0588001 54.5698 0 55.5435 0 60.0116C0 64.4804 0.0587998 65.454 0.54 68.7494C3.8004 91.2797 19.836 110.21 41.5836 117.224C45.4782 118.479 49.5834 119.335 54.252 119.851C56.0706 120.05 63.9294 120.05 65.748 119.851C73.8066 118.959 80.6334 116.966 87.3666 113.529C88.3986 113.001 88.5984 112.86 88.4574 112.743C88.3638 112.673 83.9646 106.773 78.6864 99.6425L69.0912 86.6826L57.0672 68.8904C50.4516 59.1088 45.009 51.1095 44.9616 51.1095C44.9148 51.0981 44.868 59.0032 44.8446 68.6558C44.8092 85.5566 44.7978 86.2369 44.5866 86.6352C44.2818 87.2099 44.0472 87.4445 43.554 87.703C43.179 87.8902 42.8502 87.9256 41.079 87.9256H39.0498L38.5098 87.5855C38.1755 87.376 37.904 87.0803 37.7238 86.7294L37.4778 86.2015L37.5018 62.686L37.5366 39.1586L37.9002 38.7009C38.088 38.4549 38.487 38.1382 38.7684 37.9858C39.249 37.7512 39.4368 37.7278 41.466 37.7278C43.8594 37.7278 44.2578 37.8214 44.88 38.5017C45.0558 38.6895 51.5658 48.4945 59.355 60.305C67.2406 72.2594 75.131 84.2107 83.0262 96.1588L92.5278 110.55L93.009 110.233C97.2666 107.465 101.771 103.525 105.337 99.4194C112.927 90.705 117.818 80.0793 119.461 68.7494C119.941 65.454 120 64.4804 120 60.0116C120 55.5435 119.941 54.5698 119.461 51.2739C116.2 28.7435 100.164 9.81384 78.4164 2.80025C74.5806 1.55662 70.4988 0.700549 65.9238 0.184623C64.7976 0.0670398 57.0438 -0.0613416 56.0706 0.0322449M80.6334 36.3204C81.1962 36.6018 81.654 37.1411 81.8184 37.7038C81.912 38.0092 81.9354 44.5302 81.912 59.2257L81.8766 80.3139L78.1584 74.6135L74.4282 68.9137V53.5847C74.4282 43.6742 74.475 38.1028 74.5452 37.8328C74.733 37.1765 75.1434 36.6606 75.7068 36.3552C76.1874 36.1093 76.3638 36.0853 78.2052 36.0853C79.9416 36.0853 80.2464 36.1093 80.6334 36.3204Z" />
</svg>
