<svg width="55" height="55" viewBox="0 0 55 55" fill="none" xmlns="http://www.w3.org/2000/svg">
<g clip-path="url(#clip0_314_72)">
<path d="M15.1708 24.7271C18.4708 31.2125 23.7875 36.5062 30.2729 39.8292L35.3146 34.7875C35.9333 34.1688 36.85 33.9625 37.6521 34.2375C40.2188 35.0854 42.9917 35.5438 45.8333 35.5438C47.0938 35.5438 48.125 36.575 48.125 37.8354V45.8333C48.125 47.0938 47.0938 48.125 45.8333 48.125C24.3146 48.125 6.875 30.6854 6.875 9.16667C6.875 7.90625 7.90625 6.875 9.16667 6.875H17.1875C18.4479 6.875 19.4792 7.90625 19.4792 9.16667C19.4792 12.0312 19.9375 14.7813 20.7854 17.3479C21.0375 18.15 20.8542 19.0438 20.2125 19.6854L15.1708 24.7271Z"/>
</g>
<defs>
<clipPath id="clip0_314_72">
<rect width="55" height="55" fill="white"/>
</clipPath>
</defs>
</svg>
