<svg width="125" height="125" viewBox="0 0 125 125" fill="none" xmlns="http://www.w3.org/2000/svg">
<path fill-rule="evenodd" clip-rule="evenodd" d="M11.24 57.1626C8.77016 59.2336 7.95286 61.0434 7.95286 62.5C7.95286 63.9565 8.77016 65.7663 11.24 67.8373C13.7095 69.9079 17.5061 71.9419 22.536 73.7258C32.5685 77.2838 46.6967 79.562 62.5 79.562C78.3033 79.562 92.4315 77.2838 102.464 73.7258C107.494 71.9419 111.291 69.9079 113.76 67.8373C116.23 65.7663 117.047 63.9565 117.047 62.5C117.047 61.0434 116.23 59.2336 113.76 57.1626C111.291 55.092 107.494 53.058 102.464 51.2742C92.4315 47.7161 78.3033 45.438 62.5 45.438C46.6967 45.438 32.5685 47.7161 22.536 51.2742C17.5061 53.058 13.7095 55.092 11.24 57.1626ZM19.6992 44.3731C30.8481 40.4191 45.9816 38.051 62.5 38.051C79.0184 38.051 94.1519 40.4191 105.301 44.3731C110.862 46.3452 115.636 48.7836 119.089 51.6793C122.542 54.5747 125 58.225 125 62.5C125 66.7749 122.542 70.4253 119.089 73.3206C115.636 76.2163 110.862 78.6547 105.301 80.6269C94.1519 84.5808 79.0184 86.949 62.5 86.949C45.9816 86.949 30.8481 84.5808 19.6992 80.6269C14.1384 78.6547 9.36445 76.2163 5.91098 73.3206C2.45794 70.4253 0 66.7749 0 62.5C0 58.225 2.45794 54.5747 5.91098 51.6793C9.36445 48.7836 14.1384 46.3452 19.6992 44.3731Z" fill="#61DAFB"/>
<path fill-rule="evenodd" clip-rule="evenodd" d="M41.8459 18.5974C38.6801 17.6461 36.584 17.8936 35.226 18.6218C33.868 19.3501 32.5892 20.9125 31.8933 23.9347C31.1974 26.9565 31.1993 31.0275 32.051 35.9655C33.7499 45.8147 38.69 58.3187 46.5916 71.031C54.4932 83.7433 63.6815 93.9691 72.0151 100.26C76.1932 103.414 79.988 105.451 83.1532 106.403C86.3191 107.354 88.4151 107.106 89.7732 106.378C91.1312 105.65 92.4099 104.088 93.1059 101.065C93.8017 98.0435 93.7999 93.9725 92.9481 89.0345C91.2493 79.1852 86.3092 66.6813 78.4075 53.969C70.5059 41.2567 61.3177 31.0309 52.9841 24.7397C48.8059 21.5856 45.0112 19.5485 41.8459 18.5974ZM58 19.0072C67.261 25.9985 77.0357 36.9879 85.2949 50.2755C93.5541 63.563 98.9129 76.9206 100.801 87.8658C101.742 93.3251 101.856 98.3845 100.883 102.61C99.9099 106.836 97.7354 110.638 93.7496 112.775C89.7638 114.913 85.1314 114.761 80.7053 113.431C76.2788 112.101 71.6183 109.48 66.9991 105.993C57.7381 99.0015 47.9634 88.012 39.7042 74.7245C31.445 61.4369 26.0862 48.0794 24.1983 37.1341C23.2567 31.6749 23.1432 26.6155 24.1163 22.3897C25.0893 18.1643 27.2638 14.362 31.2496 12.2245C35.2354 10.087 39.8678 10.239 44.2938 11.569C48.7204 12.8992 53.3809 15.5202 58 19.0072Z" fill="#61DAFB"/>
<path fill-rule="evenodd" clip-rule="evenodd" d="M93.1066 23.9349C92.4107 20.9127 91.1319 19.3503 89.7739 18.6221C88.4159 17.8938 86.3198 17.6463 83.154 18.5976C79.9887 19.5488 76.194 21.5858 72.0158 24.7399C63.6822 31.0311 54.494 41.257 46.5923 53.9692C38.6907 66.6815 33.7506 79.1855 32.0518 89.0347C31.2 93.9727 31.1982 98.0437 31.894 101.065C32.59 104.088 33.8687 105.65 35.2267 106.378C36.5847 107.107 38.6808 107.354 41.8467 106.403C45.0119 105.452 48.8067 103.415 52.9848 100.26C61.3184 93.9693 70.5066 83.7435 78.4083 71.0312C86.3099 58.3189 91.25 45.815 92.9488 35.9657C93.8006 31.0277 93.8025 26.9567 93.1066 23.9349ZM100.802 37.1343C98.9137 48.0796 93.5549 61.4372 85.2957 74.7247C77.0364 88.0123 67.2617 99.0017 58.0008 105.993C53.3816 109.48 48.7211 112.101 44.2946 113.431C39.8685 114.761 35.2361 114.913 31.2503 112.776C27.2645 110.638 25.09 106.836 24.1171 102.611C23.1439 98.3847 23.2574 93.3253 24.1991 87.8661C26.087 76.9208 31.4458 63.5633 39.705 50.2757C47.9642 36.9882 57.7389 25.9987 66.9999 19.0074C71.619 15.5204 76.2795 12.8994 80.7061 11.5692C85.1321 10.2393 89.7645 10.0872 93.7503 12.2247C97.7361 14.3622 99.9106 18.1645 100.884 22.3899C101.857 26.6157 101.743 31.6751 100.802 37.1343Z" fill="#61DAFB"/>
</svg>
