<svg width="120" height="120" viewBox="0 0 120 120" fill="none" xmlns="http://www.w3.org/2000/svg">
<g clip-path="url(#clip0_43_3)">
<path d="M60.0038 24.0018C44.0035 24.0018 34.0069 31.9987 30.0038 47.999C36.0019 40.0012 43.0041 37.0021 51.0019 39.0018C55.5685 40.14 58.8319 43.4512 62.446 47.1206C68.3278 53.0896 75.136 60 90.0038 60C106.003 60 116.001 52.0021 120.004 35.9981C114.005 44.0006 107.003 46.9996 99.0047 45C94.4391 43.8609 91.1794 40.5506 87.5607 36.8812C81.6825 30.9121 74.8763 24.0018 60.0038 24.0018ZM30.0038 60C14.0044 60 4.00691 67.9978 0.00378418 84.0018C6.00191 75.9993 13.0032 73.0003 21.0019 75C25.5685 76.139 28.8319 79.4493 32.446 83.1187C38.3278 89.0878 45.136 95.9981 60.0038 95.9981C76.0032 95.9981 86.0007 88.0012 90.0038 72.0009C84.0047 79.9987 77.0035 82.9978 69.0047 80.9981C64.4391 79.86 61.1794 76.5487 57.5607 72.8793C51.6825 66.9103 44.8763 60 30.0038 60Z" fill="#38BDF8"/>
</g>
<defs>
<clipPath id="clip0_43_3">
<rect width="120" height="120" fill="white"/>
</clipPath>
</defs>
</svg>
