<svg width="131" height="120" viewBox="0 0 131 120" fill="none" xmlns="http://www.w3.org/2000/svg">
<path d="M65.1352 120L89.1215 46.1785H41.1484L65.1347 120H65.1352Z" fill="#E24329"/>
<path d="M65.1346 120L41.1478 46.1779H7.53223L65.1346 120Z" fill="#FC6D26"/>
<path d="M7.53205 46.1779L0.2431 68.6121C-0.0809896 69.6094 -0.0810343 70.6837 0.242972 71.6811C0.566978 72.6784 1.1984 73.5476 2.04675 74.1641L65.1343 120L7.53154 46.1784L7.53205 46.1779Z" fill="#FCA326"/>
<path d="M7.53223 46.1783H41.1478L26.7018 1.71575C25.9583 -0.572172 22.7217 -0.571663 21.9788 1.71575L7.53223 46.1783Z" fill="#E24329"/>
<path d="M65.1353 120L89.1215 46.1779H122.738L65.1348 120H65.1353Z" fill="#FC6D26"/>
<path d="M122.737 46.1779L130.026 68.6121C130.35 69.6094 130.35 70.6838 130.026 71.6812C129.702 72.6785 129.07 73.5477 128.222 74.1641L65.1348 120L122.737 46.1784V46.1779Z" fill="#FCA326"/>
<path d="M122.738 46.1783H89.1216L103.568 1.71575C104.312 -0.572172 107.548 -0.571663 108.291 1.71575L122.738 46.1783Z" fill="#E24329"/>
</svg>
